<svg width="24" height="24" viewBox="0 0 20 20" fill="none" xmlns="http://www.w3.org/2000/svg">
<path d="M18.3334 18.3334H1.66675C1.32508 18.3334 1.04175 18.05 1.04175 17.7084C1.04175 17.3667 1.32508 17.0834 1.66675 17.0834H18.3334C18.6751 17.0834 18.9584 17.3667 18.9584 17.7084C18.9584 18.05 18.6751 18.3334 18.3334 18.3334Z" fill="#7E7E7F"/>
<path d="M8.125 3.33329V18.3333H11.875V3.33329C11.875 2.41663 11.5 1.66663 10.375 1.66663H9.625C8.5 1.66663 8.125 2.41663 8.125 3.33329Z" fill="#7E7E7F"/>
<path opacity="0.4" d="M2.5 8.33329V18.3333H5.83333V8.33329C5.83333 7.41663 5.5 6.66663 4.5 6.66663H3.83333C2.83333 6.66663 2.5 7.41663 2.5 8.33329Z" fill="#7E7E7F"/>
<path opacity="0.4" d="M14.1667 12.5V18.3334H17.5001V12.5C17.5001 11.5834 17.1667 10.8334 16.1667 10.8334H15.5001C14.5001 10.8334 14.1667 11.5834 14.1667 12.5Z" fill="#7E7E7F"/>
</svg>
